<?xml version="1.0" encoding="utf-8"?>
<svg version="1.1" xmlns:xlink="http://www.w3.org/1999/xlink" width="69px" height="26px" xmlns="http://www.w3.org/2000/svg">
  <g transform="matrix(1 0 0 1 -1125 -824 )">
    <path d="M 1125.5 828  A 3.5 3.5 0 0 1 1129 824.5 L 1190 824.5  A 3.5 3.5 0 0 1 1193.5 828 L 1193.5 846  A 3.5 3.5 0 0 1 1190 849.5 L 1129 849.5  A 3.5 3.5 0 0 1 1125.5 846 L 1125.5 828  Z " fill-rule="nonzero" fill="#f2f2f2" stroke="none" />
    <path d="M 1125.5 828  A 3.5 3.5 0 0 1 1129 824.5 L 1190 824.5  A 3.5 3.5 0 0 1 1193.5 828 L 1193.5 846  A 3.5 3.5 0 0 1 1190 849.5 L 1129 849.5  A 3.5 3.5 0 0 1 1125.5 846 L 1125.5 828  Z " stroke-width="1" stroke="#d7d7d7" fill="none" />
  </g>
</svg>