<?xml version="1.0" encoding="utf-8"?>
<svg version="1.1" xmlns:xlink="http://www.w3.org/1999/xlink" width="51px" height="30px" xmlns="http://www.w3.org/2000/svg">
  <defs>
    <mask fill="white" id="clip10">
      <path d="M 0 26  L 0 4  C 0 1.75999999999999  1.40249999999999 0  3.1875 0  L 24.8685141509434 0  L 47.8125 0  C 49.5975 0  51 1.75999999999999  51 4  L 51 14.1641791044775  L 51 26  C 51 28.24  49.5975 30  47.8125 30  L 24.9687500000001 30  L 14.34375 30  L 3.1875 30  C 1.40249999999999 30  0 28.24  0 26  Z " fill-rule="evenodd" />
    </mask>
  </defs>
  <g transform="matrix(1 0 0 1 -2010 -2318 )">
    <path d="M 0 26  L 0 4  C 0 1.75999999999999  1.40249999999999 0  3.1875 0  L 24.8685141509434 0  L 47.8125 0  C 49.5975 0  51 1.75999999999999  51 4  L 51 14.1641791044775  L 51 26  C 51 28.24  49.5975 30  47.8125 30  L 24.9687500000001 30  L 14.34375 30  L 3.1875 30  C 1.40249999999999 30  0 28.24  0 26  Z " fill-rule="nonzero" fill="#f2f2f2" stroke="none" transform="matrix(1 0 0 1 2010 2318 )" />
    <path d="M 0 26  L 0 4  C 0 1.75999999999999  1.40249999999999 0  3.1875 0  L 24.8685141509434 0  L 47.8125 0  C 49.5975 0  51 1.75999999999999  51 4  L 51 14.1641791044775  L 51 26  C 51 28.24  49.5975 30  47.8125 30  L 24.9687500000001 30  L 14.34375 30  L 3.1875 30  C 1.40249999999999 30  0 28.24  0 26  Z " stroke-width="2" stroke="#d7d7d7" fill="none" transform="matrix(1 0 0 1 2010 2318 )" mask="url(#clip10)" />
  </g>
</svg>