<?xml version="1.0" encoding="utf-8"?>
<svg version="1.1" xmlns:xlink="http://www.w3.org/1999/xlink" width="5px" height="4px" xmlns="http://www.w3.org/2000/svg">
  <g transform="matrix(1 0 0 1 -991 -1005 )">
    <path d="M 4.9072265625 0.131944444444445  C 4.96907552083333 0.219907407407407  5 0.324074074074073  5 0.444444444444445  C 5 0.564814814814814  4.96907552083333 0.668981481481481  4.9072265625 0.756944444444445  L 2.7197265625 3.86805555555556  C 2.65787760416667 3.95601851851852  2.58463541666667 4  2.5 4  C 2.41536458333333 4  2.34212239583333 3.95601851851852  2.2802734375 3.86805555555556  L 0.0927734375 0.756944444444445  C 0.0309244791666667 0.668981481481481  0 0.564814814814814  0 0.444444444444445  C 0 0.324074074074073  0.0309244791666667 0.219907407407407  0.0927734375 0.131944444444445  C 0.154622395833333 0.043981481481481  0.227864583333333 0  0.3125 0  L 4.6875 0  C 4.77213541666667 0  4.84537760416667 0.043981481481481  4.9072265625 0.131944444444445  Z " fill-rule="nonzero" fill="#333333" stroke="none" transform="matrix(1 0 0 1 991 1005 )" />
  </g>
</svg>