<?xml version="1.0" encoding="utf-8"?>
<svg version="1.1" xmlns:xlink="http://www.w3.org/1999/xlink" width="3px" height="4px" xmlns="http://www.w3.org/2000/svg">
  <g transform="matrix(1 0 0 1 -480 -232 )">
    <path d="M 2.9443359375 0.131944444444445  C 2.9814453125 0.219907407407407  3 0.324074074074073  3 0.444444444444445  C 3 0.564814814814814  2.9814453125 0.668981481481481  2.9443359375 0.756944444444445  L 1.6318359375 3.86805555555556  C 1.5947265625 3.95601851851852  1.55078125 4  1.5 4  C 1.44921875 4  1.4052734375 3.95601851851852  1.3681640625 3.86805555555556  L 0.0556640625 0.756944444444445  C 0.0185546875 0.668981481481481  0 0.564814814814814  0 0.444444444444445  C 0 0.324074074074073  0.0185546875 0.219907407407407  0.0556640625 0.131944444444445  C 0.0927734375 0.043981481481481  0.13671875 0  0.1875 0  L 2.8125 0  C 2.86328125 0  2.9072265625 0.043981481481481  2.9443359375 0.131944444444445  Z " fill-rule="nonzero" fill="#333333" stroke="none" transform="matrix(1 0 0 1 480 232 )" />
  </g>
</svg>